<svg id="Layer_1" data-name="Layer 1" xmlns="http://www.w3.org/2000/svg" viewBox="0 0 451.86 93.86"><defs><style>.cls-1{fill:#feb5b4;}.cls-2{fill:#fefefe;}.cls-3{fill:#fefdfd;}.cls-4{fill:#feb6b5;}</style></defs><path class="cls-1" d="M451.93,25V69a26.17,26.17,0,0,1-12.27,21.44c-4,2.64-8.49,2.32-12.72,3.52H25.06A26.23,26.23,0,0,1,3.59,81.68C1,77.73,1.27,73.19.07,69V25A26.17,26.17,0,0,1,12.34,3.59C16.29,1,20.83,1.27,25.06.07H426.94a26.23,26.23,0,0,1,21.47,12.25C451.05,16.27,450.73,20.81,451.93,25Z" transform="translate(-0.07 -0.07)"/><path class="cls-2" d="M283.78,18.9a23.33,23.33,0,0,1,18.87,9.76,11.22,11.22,0,0,1,2.44,7.44c-.11,2.2-.91,3.94-3,4.66a4.6,4.6,0,0,1-5.39-1.53,32.11,32.11,0,0,1-2.22-3.29q-5.58-9.19-14.86-7.79A15.35,15.35,0,0,0,267.2,40.34a35.71,35.71,0,0,0-.14,16.26c1.74,7.25,6.14,11.42,13.3,12.18,6.09.65,11.11-2.45,14.21-8.78.44-.89.85-1.8,1.27-2.7,1.33-2.83,3.55-4.15,6.48-2.89,2.73,1.18,3.71,3.54,3.1,6.59C303.59,70.08,295.1,77.06,285,77.93c-22.49,1.93-32.19-15.45-30.27-33.52C256,32.1,262,23.26,274.45,19.7,277.07,19,279.7,19,283.78,18.9Z" transform="translate(-0.07 -0.07)"/><path class="cls-2" d="M53.24,39.81C57,36,61.47,34,66.7,34.51c8.15.82,12.46,5.72,13.06,15.45.43,7,.11,14,.06,20.95a13.19,13.19,0,0,1-.6,2.92c-.79,3.07-2.83,4.39-5.93,4S69,75.54,69,72.71c-.06-6.65.25-13.32-.19-19.95-.26-3.92,0-8.76-5.72-9.73-5-.86-9,2-10.13,7.26-1.4,6.26-.63,12.59-.85,18.89a26.18,26.18,0,0,1-.35,4.95,4.7,4.7,0,0,1-4.69,3.76c-2.47.16-4.29-.89-5-3.28a23,23,0,0,1-.89-5.87q-.11-20.2,0-40.42a26.4,26.4,0,0,1,.56-4.92c.6-3,2.46-4.64,5.65-4.4s4.62,2.3,4.65,5.37c0,4.94,0,9.89,0,14.83Z" transform="translate(-0.07 -0.07)"/><path class="cls-2" d="M109.66,77.89C96.81,78,88.35,70,88.05,57.57c-.34-13.79,7.35-22.94,20.42-23.17,9.57-.17,18,4.47,20.06,15.63,1.08,5.71-1,8.7-6.86,8.88-6.14.2-12.3.23-18.44,0-4.51-.15-4.64,1.81-3.18,5.17,2.93,6.69,10.21,8.68,16.64,4.36,1.5-1,2.73-2.41,4.16-3.55,1.75-1.4,3.65-2.61,5.78-.76,2.29,2,1.41,4.25.07,6.27-3.32,5-8.47,6.67-14.06,7.45A22.77,22.77,0,0,1,109.66,77.89Z" transform="translate(-0.07 -0.07)"/><path class="cls-2" d="M355,56.57c0,13.11-8.15,21.36-21,21.38-13,0-21.15-8.38-21.16-21.77,0-14.28,8.56-21.48,21.22-21.8S355.09,43.42,355,56.57Z" transform="translate(-0.07 -0.07)"/><path class="cls-2" d="M221,56.19C221,69.4,212.67,78,199.67,78c-12.34,0-21.41-9.06-21.46-21.46-.05-12.65,9.19-22.3,21.35-22.28C212.09,34.24,221,43.33,221,56.19Z" transform="translate(-0.07 -0.07)"/><path class="cls-2" d="M373.45,40.72c5.13-4.65,10.22-7.38,16.73-5.87,6.79,1.57,10.61,5.95,10.77,13,.18,7.64.05,15.29.09,22.93,0,3.67-.78,6.87-5.19,7s-5.46-3.43-5.61-6.79c-.31-7-.1-14-.25-20.94-.07-3.14-1-6.13-4.51-6.93-3.88-.88-7.32.16-9.49,3.77a15.31,15.31,0,0,0-2,8.12q0,7.23,0,14.46a20.12,20.12,0,0,1-.12,3.48c-.47,2.73-2.05,4.56-4.9,4.85-3,.32-4.58-1.55-5.45-4.13a9.62,9.62,0,0,1-.43-2.93q0-14.71,0-29.42c0-3.24.82-6.3,4.47-6.78S372.75,36.79,373.45,40.72Z" transform="translate(-0.07 -0.07)"/><path class="cls-3" d="M137.94,48c0-7.31,0-14.62,0-21.92,0-3.57.33-6.88,5-7s5.62,3.22,5.78,6.62c.31,6.47.15,13,.17,19.43,0,8,0,15.95,0,23.92a13.71,13.71,0,0,1-1.23,6.3,4.54,4.54,0,0,1-5.42,2.51c-3.15-.65-4.25-3-4.26-5.89,0-8,0-15.94,0-23.92Z" transform="translate(-0.07 -0.07)"/><path class="cls-2" d="M170,48.52c0,7.47,0,14.95,0,22.42,0,3.77-1.23,6.83-5.42,6.88-4.34.05-5.44-3.35-5.46-6.9q-.13-22.41,0-44.82c0-3.77,1.16-7.14,5.84-7s5,3.58,5,7.06C170.05,33.58,170,41.05,170,48.52Z" transform="translate(-0.07 -0.07)"/><path class="cls-2" d="M243,31.43c-.61,6.69-1.27,14.62-2.12,22.53-.24,2.3-.78,4.93-3.85,5s-3.71-2.58-3.91-4.87c-.79-8.92-1.54-17.85-2-26.79-.27-5.59,2.05-8.34,6.27-8.29,5.75.06,5.17,4.5,5.58,8.2C243.08,28.18,243,29.18,243,31.43Z" transform="translate(-0.07 -0.07)"/><path class="cls-3" d="M237.39,78c-4-.61-6.38-2.55-6.16-6.31a5.43,5.43,0,0,1,5.94-5.49c3.68.14,5.81,2.53,5.74,6.24S240.34,77.55,237.39,78Z" transform="translate(-0.07 -0.07)"/><path class="cls-4" d="M108.51,53a30.71,30.71,0,0,1-3.46,0c-1.87-.23-4.51,1-5.41-1s.6-4.44,2-6.3a8.67,8.67,0,0,1,8.23-3.57,8.78,8.78,0,0,1,7.45,5.74c1.42,3.32,1,5.49-3.35,5.18C112.15,52.88,110.33,53,108.51,53Z" transform="translate(-0.07 -0.07)"/><path class="cls-1" d="M344.18,56.59a37,37,0,0,1-.38,4.95,10.35,10.35,0,0,1-9.79,8.4,9.84,9.84,0,0,1-9.69-7.77,25,25,0,0,1-.06-11.35c1.27-5.6,4.91-8.21,10.4-8,5.18.25,8.57,3.57,9.28,9.25a35.07,35.07,0,0,1,0,4.47Z" transform="translate(-0.07 -0.07)"/><path class="cls-1" d="M210,56.06a15.38,15.38,0,0,1-1,7.3c-1.76,3.93-4.61,6.41-9.09,6.58s-7.52-2.15-9.11-6.26a18.72,18.72,0,0,1-1-12.1c1.81-6.5,5.09-9.22,11.25-8.68,5.08.43,8.43,4.23,8.93,10.19C210.08,54.07,210,55.07,210,56.06Z" transform="translate(-0.07 -0.07)"/></svg>